<?xml version="1.0" encoding="utf-8"?>
<!-- Generator: Adobe Illustrator 26.5.0, SVG Export Plug-In . SVG Version: 6.00 Build 0)  -->
<svg version="1.1" id="Capa_1" xmlns="http://www.w3.org/2000/svg" xmlns:xlink="http://www.w3.org/1999/xlink" x="0px" y="0px"
	 viewBox="0 0 33 35" style="enable-background:new 0 0 33 35;" xml:space="preserve">
<style type="text/css">
	.st0{fill:#2E3192;}
	.st1{fill:#D1192D;}
</style>
<g>
	<path class="st0" d="M16.2,15.7c0.1-0.1,0.1-0.1,0.1-0.1c1.9-1.9,3.8-3.8,5.6-5.6c0.6-0.6,1.2-0.9,2-1.1c1.4-0.3,2.6,0,3.7,0.9
		c0.7,0.7,1.4,1.4,1.8,2.3c0.5,0.8,0.8,1.7,0.9,2.7c0.1,0.6,0.1,1.2,0.1,1.8c-0.1,1.8-0.8,3.5-2,4.9c-0.2,0.2-0.3,0.4-0.5,0.6
		c-4.2,4.2-8.5,8.5-12.7,12.7c0,0-0.1,0.1-0.1,0.1c-0.1,0-0.1,0-0.1-0.1c-1.1-1.1-1.8-2.5-2.2-4c-0.2-0.7-0.2-1.4-0.2-2
		c0.1-2.1,0.8-3.9,2.1-5.4c0.1-0.2,0.3-0.3,0.4-0.4c2.1-2.1,4.3-4.3,6.4-6.4c0,0,0.1-0.1,0.1-0.1c0,0,0,0,0,0c0,0,0,0,0,0
		c0,0-0.1,0-0.1,0.1c-0.3,0.2-0.6,0.4-1,0.5c-1.4,0.5-3,0.1-4.1-0.9C16.4,15.9,16.3,15.8,16.2,15.7z"/>
	<path class="st1" d="M11.1,18.9c0,0,0.1-0.1,0.1-0.1c0.6-0.4,1.2-0.6,1.9-0.7c1.3-0.1,2.4,0.2,3.3,1.1c0.1,0.1,0.2,0.2,0.2,0.2
		c0,0,0,0.1,0,0.1c0,0-0.1,0.1-0.1,0.1c-1.8,1.8-3.7,3.7-5.5,5.5c-0.6,0.6-1.2,0.9-2,1.1c-1.4,0.3-2.6,0-3.7-1
		c-0.7-0.6-1.3-1.4-1.8-2.2c-0.5-0.8-0.8-1.7-0.9-2.7c-0.1-0.7-0.1-1.3-0.1-2c0.1-1.8,0.8-3.5,2-4.9c0.1-0.2,0.3-0.3,0.5-0.5
		c4.2-4.2,8.5-8.5,12.7-12.7c0,0,0,0,0,0c0.1-0.1,0.1-0.2,0.3,0c1.1,1.2,1.9,2.6,2.2,4.2c0.1,0.6,0.2,1.2,0.2,1.8
		c-0.1,2.3-0.9,4.2-2.5,5.8c-2.2,2.2-4.4,4.4-6.7,6.7C11.2,18.7,11.1,18.8,11.1,18.9C11.1,18.9,11.1,18.9,11.1,18.9z"/>
</g>
</svg>
